<svg width="169" height="94" viewBox="0 0 169 94" fill="none" xmlns="http://www.w3.org/2000/svg">
<ellipse cx="22.6182" cy="22.5938" rx="22.6182" ry="22.5938" transform="matrix(0.308644 -0.951177 0.950935 0.30939 111.112 79.4035)" fill="#CFD8DC"/>
<g clip-path="url(#clip0_36_146)">
<path d="M7.59783 21.9393C8.41016 19.4363 11.015 17.9855 13.5706 18.6123L144.222 50.6575C152.693 52.7353 157.617 61.5761 154.925 69.8727C152.233 78.1693 143.059 82.4232 134.987 79.1185L10.4766 28.1472C8.04109 27.1501 6.7856 24.4424 7.59783 21.9393ZM131.906 62.3833C130.529 66.6266 132.847 71.1843 137.085 72.5633C141.323 73.942 145.875 71.6196 147.252 67.3761C148.628 63.1327 146.309 58.5755 142.071 57.1967C137.833 55.8182 133.283 58.1401 131.906 62.3833Z" fill="#58585E"/>
</g>
<defs>
<clipPath id="clip0_36_146">
<rect width="32.3117" height="154.929" fill="white" transform="matrix(0.308644 -0.951177 0.950935 0.30939 2.61133 37.3066)"/>
</clipPath>
</defs>
</svg>
