<svg width="380" height="268" viewBox="0 0 355 298" fill="none" xmlns="http://www.w3.org/2000/svg">
<path d="M62.0428 293.348C56.4922 298.906 47.4357 298.94 42.3475 292.956C22.7719 269.933 9.33231 242.222 3.41061 212.412C-3.43826 177.934 0.0768284 142.197 13.5114 109.72C26.9459 77.2427 49.6966 49.484 78.8863 29.9541C108.076 10.4241 142.394 -4.19196e-07 177.5 0C212.606 4.19196e-07 246.924 10.4241 276.114 29.9541C305.303 49.484 328.054 77.2427 341.489 109.72C354.923 142.197 358.438 177.934 351.589 212.412C345.668 242.222 332.228 269.933 312.652 292.956C307.564 298.94 298.508 298.906 292.957 293.348V293.348C287.417 287.8 287.477 278.853 292.465 272.805C308.13 253.811 318.907 231.168 323.735 206.864C329.488 177.902 326.535 147.883 315.25 120.603C303.965 93.3218 284.855 70.0045 260.335 53.5993C235.816 37.1941 206.989 28.4379 177.5 28.4379C148.011 28.4379 119.184 37.1941 94.6645 53.5993C70.1451 70.0045 51.0346 93.3218 39.7496 120.603C28.4645 147.883 25.5119 177.902 31.2649 206.864C36.0929 231.168 46.8699 253.811 62.5347 272.805C67.5232 278.853 67.5831 287.8 62.0428 293.348V293.348Z" fill="#ECEFF1"/>
</svg>
