<svg width="259" height="218" viewBox="0 0 259 218" fill="none" xmlns="http://www.w3.org/2000/svg">
<rect x="127.886" y="0.473682" width="3.22726" height="12.9263" rx="1.61363" fill="#CFD8DC"/>
<rect width="3.22732" height="6.46306" rx="1.61366" transform="matrix(0.994507 -0.104666 0.104391 0.994536 114.401 1.35071)" fill="#CFD8DC"/>
<rect width="3.22747" height="6.46279" rx="1.61373" transform="matrix(0.978091 -0.208177 0.207647 0.978204 101.082 3.63435)" fill="#CFD8DC"/>
<rect width="3.22769" height="6.46234" rx="1.61384" transform="matrix(0.950935 -0.30939 0.308645 0.951177 88.074 7.29957)" fill="#CFD8DC"/>
<rect width="3.22798" height="6.46173" rx="1.61399" transform="matrix(0.913344 -0.40719 0.406284 0.913747 75.5199 12.3063)" fill="#CFD8DC"/>
<rect width="3.22835" height="6.46101" rx="1.61417" transform="matrix(0.865736 -0.5005 0.4995 0.866314 63.5571 18.5995)" fill="#CFD8DC"/>
<rect width="3.22876" height="6.46019" rx="1.61438" transform="matrix(0.808644 -0.588298 0.587272 0.809389 52.3168 26.1105)" fill="#CFD8DC"/>
<rect width="3.2292" height="6.4593" rx="1.6146" transform="matrix(0.742701 -0.669623 0.668638 0.743588 41.9221 34.7567)" fill="#CFD8DC"/>
<rect width="3.22965" height="6.4584" rx="1.61483" transform="matrix(0.668638 -0.743588 0.742701 0.669623 32.487 44.4437)" fill="#CFD8DC"/>
<rect width="3.23009" height="6.45752" rx="1.61505" transform="matrix(0.587273 -0.809389 0.808644 0.588298 24.1148 55.0651)" fill="#CFD8DC"/>
<rect width="3.2305" height="6.4567" rx="1.61525" transform="matrix(0.4995 -0.866314 0.865737 0.5005 16.8972 66.5046)" fill="#CFD8DC"/>
<rect width="3.23087" height="6.45597" rx="1.61543" transform="matrix(0.406284 -0.913747 0.913344 0.407189 10.9133 78.6369)" fill="#CFD8DC"/>
<rect width="3.23117" height="6.45537" rx="1.61559" transform="matrix(0.308644 -0.951178 0.950935 0.30939 6.22858 91.329)" fill="#CFD8DC"/>
<rect width="3.2314" height="6.45492" rx="1.6157" transform="matrix(0.207646 -0.978204 0.978091 0.208177 2.89453 104.442)" fill="#CFD8DC"/>
<rect width="3.23154" height="6.45464" rx="1.61577" transform="matrix(0.104391 -0.994536 0.994507 0.104667 0.947632 117.832)" fill="#CFD8DC"/>
<rect x="0.409088" y="131.353" width="3.23158" height="12.9091" rx="1.61579" transform="rotate(-90 0.409088 131.353)" fill="#CFD8DC"/>
<rect width="3.23154" height="6.45464" rx="1.61577" transform="matrix(-0.104391 -0.994536 0.994507 -0.104667 1.28494 144.855)" fill="#CFD8DC"/>
<rect width="3.2314" height="6.45492" rx="1.6157" transform="matrix(-0.207646 -0.978204 0.978091 -0.208177 3.56555 158.193)" fill="#CFD8DC"/>
<rect width="3.23117" height="6.45537" rx="1.61559" transform="matrix(-0.308644 -0.951178 0.950935 -0.30939 7.22589 171.218)" fill="#CFD8DC"/>
<rect width="3.23087" height="6.45597" rx="1.61543" transform="matrix(-0.406285 -0.913747 0.913344 -0.407189 12.226 183.789)" fill="#CFD8DC"/>
<rect width="3.2305" height="6.4567" rx="1.61525" transform="matrix(-0.4995 -0.866314 0.865736 -0.5005 18.5108 195.768)" fill="#CFD8DC"/>
<rect width="3.2301" height="6.45753" rx="1.61505" transform="matrix(-0.587272 -0.80939 0.808644 -0.588299 26.0118 207.023)" fill="#CFD8DC"/>
<rect width="3.22965" height="6.4584" rx="1.61483" transform="matrix(-0.668638 -0.743588 0.742701 -0.669623 34.6465 217.432)" fill="#CFD8DC"/>
<rect width="3.22965" height="6.45841" rx="1.61483" transform="matrix(-0.668639 0.743587 -0.742702 -0.669622 226.513 215.03)" fill="#CFD8DC"/>
<rect width="3.23009" height="6.45752" rx="1.61504" transform="matrix(-0.587272 0.809389 -0.808644 -0.588298 234.885 204.409)" fill="#CFD8DC"/>
<rect width="3.2305" height="6.4567" rx="1.61525" transform="matrix(-0.499499 0.866314 -0.865736 -0.500501 242.103 192.969)" fill="#CFD8DC"/>
<rect width="3.23086" height="6.45597" rx="1.61543" transform="matrix(-0.406284 0.913747 -0.913344 -0.407189 248.087 180.837)" fill="#CFD8DC"/>
<rect width="3.23116" height="6.45537" rx="1.61558" transform="matrix(-0.308645 0.951177 -0.950935 -0.309389 252.771 168.145)" fill="#CFD8DC"/>
<rect width="3.23139" height="6.4549" rx="1.6157" transform="matrix(-0.207646 0.978204 -0.978091 -0.208178 256.105 155.032)" fill="#CFD8DC"/>
<rect width="3.23152" height="6.45464" rx="1.61576" transform="matrix(-0.104391 0.994536 -0.994507 -0.104666 258.052 141.642)" fill="#CFD8DC"/>
<rect x="258.591" y="128.121" width="3.23158" height="12.9091" rx="1.61579" transform="rotate(90 258.591 128.121)" fill="#CFD8DC"/>
<rect width="3.23152" height="6.45464" rx="1.61576" transform="matrix(0.104391 0.994536 -0.994507 0.104666 257.715 114.618)" fill="#CFD8DC"/>
<rect width="3.2314" height="6.45493" rx="1.6157" transform="matrix(0.207647 0.978204 -0.978091 0.208177 255.434 101.281)" fill="#CFD8DC"/>
<rect width="3.23116" height="6.45535" rx="1.61558" transform="matrix(0.308644 0.951178 -0.950935 0.30939 251.774 88.2556)" fill="#CFD8DC"/>
<rect width="3.23087" height="6.45597" rx="1.61543" transform="matrix(0.406284 0.913747 -0.913344 0.40719 246.774 75.6847)" fill="#CFD8DC"/>
<rect width="3.2305" height="6.45669" rx="1.61525" transform="matrix(0.4995 0.866314 -0.865736 0.5005 240.489 63.7059)" fill="#CFD8DC"/>
<rect width="3.23009" height="6.45752" rx="1.61505" transform="matrix(0.587272 0.80939 -0.808644 0.588299 232.988 52.4506)" fill="#CFD8DC"/>
<rect width="3.22965" height="6.4584" rx="1.61482" transform="matrix(0.668637 0.743589 -0.7427 0.669624 224.354 42.0421)" fill="#CFD8DC"/>
<rect width="3.2292" height="6.4593" rx="1.6146" transform="matrix(0.742701 0.669624 -0.668637 0.743589 214.68 32.5944)" fill="#CFD8DC"/>
<rect width="3.22876" height="6.46018" rx="1.61438" transform="matrix(0.808644 0.588299 -0.587272 0.80939 204.072 24.211)" fill="#CFD8DC"/>
<rect width="3.22835" height="6.46101" rx="1.61417" transform="matrix(0.865736 0.5005 -0.4995 0.866314 192.648 16.9837)" fill="#CFD8DC"/>
<rect width="3.22799" height="6.46173" rx="1.61399" transform="matrix(0.913344 0.407189 -0.406284 0.913747 180.532 10.9919)" fill="#CFD8DC"/>
<rect width="3.22769" height="6.46234" rx="1.61384" transform="matrix(0.950935 0.30939 -0.308645 0.951177 167.857 6.30094)" fill="#CFD8DC"/>
<rect width="3.22745" height="6.46279" rx="1.61373" transform="matrix(0.978091 0.208177 -0.207646 0.978204 154.761 2.96246)" fill="#CFD8DC"/>
<rect width="3.22732" height="6.46306" rx="1.61366" transform="matrix(0.994507 0.104666 -0.104391 0.994536 141.389 1.01294)" fill="#CFD8DC"/>
</svg>
